<svg xmlns="http://www.w3.org/2000/svg" viewBox="0 0 1315.91 888.44"><defs><style>.cls-1,.cls-3{fill:#231f20;}.cls-2{fill:#0083c7;}.cls-3{stroke:#010101;stroke-miterlimit:10;}.cls-4{fill:#efeff0;}</style></defs><g id="Layer_2" data-name="Layer 2"><g id="Layer_1-2" data-name="Layer 1"><path class="cls-1" d="M154.87,77c58,0,87.89,34.72,87.89,95.48v11.93H186.34V168.72c0-27.12-10.85-37.43-29.84-37.43s-29.84,10.31-29.84,37.43c0,27.67,11.94,48.28,51,82.46C227.57,295.13,243.3,326.59,243.3,370c0,60.76-30.38,95.49-89,95.49s-89-34.73-89-95.49V346.67h56.42v27.12c0,27.13,11.94,36.89,30.92,36.89s30.93-9.76,30.93-36.89c0-27.67-11.94-48.28-51-82.46C82.72,247.39,67,215.92,67,172.52,67,111.76,96.83,77,154.87,77Z" transform="translate(-29.23 -77.04)"/><path class="cls-1" d="M331.73,186.08h-1.08V461.14H276.94V81.38H351.8L412,308.69h1.09V81.38h53.16V461.14H405Z" transform="translate(-29.23 -77.04)"/><path class="cls-1" d="M568.8,241.42h81.92v54.25H568.8V406.88H671.88v54.26H509.13V81.38H671.88v54.25H568.8Z" transform="translate(-29.23 -77.04)"/><path class="cls-1" d="M901.91,461.14H841.69l-10.31-68.9H758.14l-10.31,68.9H693L753.8,81.38h87.35ZM765.74,340.7h57.5L795,148.65H794Z" transform="translate(-29.23 -77.04)"/><path class="cls-1" d="M1007.7,309.77,989.25,344.5V461.14H929.58V81.38h59.67V245.76h1.09l77-164.38h59.68l-83,169.26,83,210.5h-61.3Z" transform="translate(-29.23 -77.04)"/><path class="cls-1" d="M1210.05,335.27,1134.64,81.38H1197l45,173.06h1.08l45-173.06h57l-75.4,253.89V461.14h-59.68Z" transform="translate(-29.23 -77.04)"/><path class="cls-1" d="M441.86,750.1h77v54.25h-77V961.14H382.18V581.38H540.05v54.25H441.86Z" transform="translate(-29.23 -77.04)"/><path class="cls-1" d="M568.8,581.38h59.68v325.5h98.2v54.26H568.8Z" transform="translate(-29.23 -77.04)"/><path class="cls-1" d="M747.83,672.52c0-60.76,32-95.48,90.6-95.48S929,611.76,929,672.52V870c0,60.76-32,95.49-90.6,95.49s-90.6-34.73-90.6-95.49Zm59.68,201.27c0,27.13,11.93,37.43,30.92,37.43s30.92-10.3,30.92-37.43V668.72c0-27.12-11.93-37.43-30.92-37.43s-30.92,10.31-30.92,37.43Z" transform="translate(-29.23 -77.04)"/><path class="cls-1" d="M962.67,672.52c0-60.76,32-95.48,90.59-95.48s90.6,34.72,90.6,95.48V870c0,60.76-32,95.49-90.6,95.49S962.67,930.75,962.67,870Zm59.67,201.27c0,27.13,11.94,37.43,30.92,37.43s30.93-10.3,30.93-37.43V668.72c0-27.12-11.94-37.43-30.93-37.43s-30.92,10.31-30.92,37.43Z" transform="translate(-29.23 -77.04)"/><path class="cls-1" d="M1242.06,750.1h77v54.25h-77V961.14h-59.68V581.38h157.87v54.25h-98.19Z" transform="translate(-29.23 -77.04)"/><circle class="cls-2" cx="152" cy="697.47" r="143"/><path class="cls-1" d="M181.23,640.5a134,134,0,1,1-94.75,39.25,133.13,133.13,0,0,1,94.75-39.25m0-18a152,152,0,1,0,152,152,152,152,0,0,0-152-152Z" transform="translate(-29.23 -77.04)"/><ellipse class="cls-3" cx="152" cy="697.47" rx="77.11" ry="96.73"/><path class="cls-4" d="M206.63,698.5l-19.52,24a2.35,2.35,0,0,0,.59,3.48,32.23,32.23,0,0,1,14.11,18.91,2.36,2.36,0,0,0,3.38,1.43l28.55-15.43a2.32,2.32,0,0,0,1.21-2.37c-2.14-14.29-12.63-27.39-25.95-30.87A2.32,2.32,0,0,0,206.63,698.5Z" transform="translate(-29.23 -77.04)"/></g></g></svg>